<?xml version="1.0" standalone="no"?>
<!DOCTYPE svg PUBLIC "-//W3C//DTD SVG 20010904//EN"
 "http://www.w3.org/TR/2001/REC-SVG-20010904/DTD/svg10.dtd">
<svg version="1.0" xmlns="http://www.w3.org/2000/svg"
 width="1920.000000pt" height="1080.000000pt" viewBox="0 0 1920.000000 1080.000000"
 preserveAspectRatio="xMidYMid meet">
<metadata>
Created by potrace 1.16, written by Peter Selinger 2001-2019
</metadata>
<g transform="translate(0.000000,1080.000000) scale(0.100000,-0.100000)"
fill="#000000" stroke="none">
<path d="M0 5400 l0 -5400 9600 0 9600 0 0 5400 0 5400 -9600 0 -9600 0 0
-5400z m9589 2510 c519 -92 957 -322 1316 -691 348 -358 556 -768 647 -1276
20 -111 23 -161 23 -383 0 -222 -3 -272 -23 -383 -91 -508 -299 -918 -647
-1276 -360 -371 -794 -598 -1322 -693 -111 -20 -161 -23 -383 -23 -285 0 -394
14 -633 80 -806 221 -1441 856 -1662 1662 -66 239 -80 348 -80 633 0 222 3
272 23 383 91 508 299 918 647 1276 359 370 810 606 1317 690 175 29 179 29
428 26 178 -2 251 -7 349 -25z"/>
<path d="M9915 7705 c121 -55 275 -147 393 -234 105 -79 301 -268 385 -371
617 -764 581 -1754 -89 -2425 -349 -349 -826 -582 -1302 -636 -150 -17 -396
-7 -494 19 -314 85 -512 270 -620 582 -31 92 -33 100 -32 250 0 127 4 169 22
234 30 110 82 212 151 298 l58 74 6 105 c19 342 236 621 570 732 86 29 101 31
242 31 141 0 156 -2 242 -31 333 -111 551 -390 570 -730 l6 -102 46 -7 c25 -4
82 -2 126 4 234 34 433 226 506 487 44 156 28 384 -42 598 -172 527 -706 979
-1268 1072 -140 24 -420 16 -566 -15 -153 -32 -325 -93 -480 -170 -587 -289
-1008 -799 -1138 -1377 -30 -134 -32 -492 -4 -623 62 -287 194 -547 394 -775
298 -339 776 -618 1228 -718 137 -30 505 -32 660 -3 205 37 458 129 562 203
163 117 248 148 376 141 141 -9 260 -70 305 -158 43 -85 22 -199 -58 -315
l-34 -49 33 23 c52 37 230 219 300 306 221 275 396 644 460 965 36 187 45 272
45 470 0 370 -70 675 -228 997 -231 470 -583 821 -1051 1049 -132 64 -336 144
-368 144 -7 0 33 -20 88 -45z"/>
<path d="M8145 7577 c-434 -226 -772 -575 -991 -1020 -308 -629 -308 -1366 0
-1994 231 -469 580 -818 1049 -1049 322 -158 627 -228 997 -228 368 0 668 69
992 226 82 39 147 72 145 74 -1 1 -42 -11 -92 -27 -489 -161 -1171 -122 -1715
96 -318 128 -581 304 -820 551 -546 565 -743 1235 -565 1929 122 479 405 932
779 1252 89 76 195 153 332 240 44 28 1 8 -111 -50z"/>
<path d="M9110 6281 c-338 -47 -598 -318 -634 -659 -5 -54 -5 -54 17 -39 197
128 440 188 680 166 113 -11 192 -34 327 -97 118 -55 196 -82 320 -112 130
-31 124 -34 116 58 -34 380 -316 662 -687 685 -46 3 -109 2 -139 -2z"/>
</g>
</svg>
